<?xml version="1.0" encoding="utf-8"?>
<!-- Generator: Adobe Illustrator 16.0.0, SVG Export Plug-In . SVG Version: 6.00 Build 0)  -->
<!DOCTYPE svg PUBLIC "-//W3C//DTD SVG 1.1//EN" "http://www.w3.org/Graphics/SVG/1.1/DTD/svg11.dtd">
<svg version="1.1" xmlns="http://www.w3.org/2000/svg" xmlns:xlink="http://www.w3.org/1999/xlink" x="0px" y="0px" width="2000px"
	 height="2000px" viewBox="0 0 2000 2000" enable-background="new 0 0 2000 2000" xml:space="preserve">
<g id="Capa_1">
</g>
<g id="JUSTIFICACION">
</g>
<g id="Capa_3">
	<path d="M1754.579,1904.02c0,0,149.44-25.35,149.44-242.314V269.516c0,0-22.878-173.535-218.146-173.535H271.987
		c0,0-176.007,28.892-176.007,202.463v1417.503c0,0,24.131,188.073,197.703,188.073H1754.579z"/>
	<g>
		<g>
			<path d="M1229.771,771.193l-126.963-411.206L794.371,744.002l-619.809,71.604l402.15,292.273l-169.348,532.132l475.675-383
				l288.218,383l115.96-530.181l538.221-294.733L1229.771,771.193z M1217.62,1064.004l-75.475,409.092l-230.371-325.659
				l-361.397,285.947l111.208-357.442L359.774,869.418l492.47-55.602l214.428-281.996l75.473,293.907l476.582,39.713
				L1217.62,1064.004z"/>
			<polygon fill="#F7C201" points="1618.727,865.44 1217.62,1064.004 1142.145,1473.096 911.774,1147.437 550.378,1433.384 
				661.586,1075.941 359.774,869.418 852.244,813.816 1066.672,531.82 1142.145,825.728 			"/>
		</g>
		<polygon fill="#FFFFFF" points="524.287,929.133 446.837,882.398 871.041,844.713 1050.854,598.421 1050.854,692.785 
			901.284,898.717 		"/>
	</g>
</g>
<g id="Capa_4">
</g>
</svg>
