<?xml version="1.0" encoding="utf-8"?>
<!-- Generator: Adobe Illustrator 16.0.0, SVG Export Plug-In . SVG Version: 6.00 Build 0)  -->
<!DOCTYPE svg PUBLIC "-//W3C//DTD SVG 1.1//EN" "http://www.w3.org/Graphics/SVG/1.1/DTD/svg11.dtd">
<svg version="1.1" xmlns="http://www.w3.org/2000/svg" xmlns:xlink="http://www.w3.org/1999/xlink" x="0px" y="0px" width="1472px"
	 height="863px" viewBox="0 0 1472 863" enable-background="new 0 0 1472 863" xml:space="preserve">
<g id="Capa_1">
</g>
<g id="JUSTIFICACION">
</g>
<g id="Capa_3">
	<rect width="1472" height="863"/>
	<g>
		<path fill="#F7C201" d="M1298.434,782.512l-480.396-0.236l146.175-581.654l-0.839-9.281l484.45-0.387L1304.31,379.789h-198.334
			l-10.76,43.629h131.219l-30.769,123.605h-130.993l-11.385,46.098l193.66-0.352L1298.434,782.512z M842.401,763.287l431.187,0.213
			l-41.163-151.703l-203.41,0.369l20.779-84.143h131.022l21.31-85.605h-131.164l20.13-81.629h203.794l114.61-150.805l-428.132,0.342
			L842.401,763.287z"/>
		<path fill="#F7C201" d="M802.63,782.328l-306.653-0.092L445.12,664.742L335.998,782.326l-311.822-0.092L172.65,185.158
			L375.29,320.41l-66.782,233.01l202.248-163.27l124.401,168.732l52.918-230.771l264.56-146.051L802.63,782.328z M48.477,763.242
			l279.234,0.082L450.993,630.48l57.464,132.76l279.337,0.084l135.831-543.545L704.696,340.639l-60.271,262.834L507.244,417.404
			L273.688,605.947l79.516-277.436L184.57,215.957L48.477,763.242z"/>
		<path d="M648.847,177.369l-47.54-153.971l-115.49,143.791L253.736,194l150.58,109.439l-63.41,199.25l178.11-143.41l107.92,143.41
			l43.42-198.52l201.53-110.361L648.847,177.369z M644.297,287.01l-28.261,153.18l-86.26-121.939l-135.32,107.068l41.641-133.84
			l-113.01-77.33l184.399-20.818l80.29-105.59l28.26,110.049l178.45,14.871L644.297,287.01z"/>
		<polygon fill="#F7C201" points="794.486,212.66 644.297,287.01 616.036,440.189 529.776,318.25 394.456,425.318 436.097,291.479 
			323.087,214.148 507.486,193.33 587.776,87.74 616.036,197.789 		"/>
		<g>
			<path fill="#F7C201" d="M840.788,803.248l-5.819,32.945h-8.024l5.818-32.945H840.788z"/>
			<path fill="#F7C201" d="M853.692,801.465l-6.146,34.729h-8.025l6.147-34.729H853.692z"/>
			<path fill="#F7C201" d="M882.554,810.008l-4.598,26.186h-8.026l0.611-3.566c-1.033,1.158-2.293,2.088-3.779,2.791
				c-1.485,0.705-3.073,1.057-4.763,1.057c-2.627,0-4.691-0.742-6.194-2.229c-1.502-1.486-2.252-3.561-2.252-6.219
				c0-1.002,0.077-1.908,0.234-2.723l2.722-15.297h7.978l-2.487,14.219c-0.094,0.502-0.141,0.986-0.141,1.453
				c0,1.316,0.367,2.324,1.104,3.027c0.734,0.705,1.759,1.057,3.072,1.057c1.503,0,2.777-0.445,3.825-1.336
				c1.048-0.893,1.745-2.168,2.089-3.826l2.581-14.594H882.554z"/>
			<path fill="#F7C201" d="M887.786,835.584c-1.643-0.658-2.934-1.572-3.872-2.746s-1.408-2.525-1.408-4.059
				c0-0.219,0.031-0.611,0.095-1.174h7.743c-0.063,0.971,0.227,1.744,0.868,2.322c0.641,0.58,1.557,0.869,2.744,0.869
				c1.002,0,1.831-0.188,2.487-0.564c0.657-0.375,0.985-0.908,0.985-1.596c0-0.656-0.351-1.18-1.055-1.572
				c-0.704-0.391-1.869-0.867-3.496-1.43c-1.689-0.563-3.105-1.119-4.247-1.666c-1.143-0.549-2.12-1.338-2.934-2.371
				c-0.814-1.031-1.22-2.33-1.22-3.895c0-1.533,0.453-2.916,1.36-4.152s2.183-2.197,3.825-2.887
				c1.643-0.688,3.543-1.033,5.702-1.033c2.158,0,4.035,0.354,5.631,1.057s2.831,1.682,3.708,2.934
				c0.876,1.25,1.313,2.658,1.313,4.223l-0.047,0.705h-7.274c0.063-0.939-0.22-1.689-0.844-2.254
				c-0.627-0.563-1.519-0.844-2.676-0.844c-0.908,0-1.65,0.188-2.229,0.563s-0.867,0.891-0.867,1.549
				c0,0.688,0.382,1.26,1.149,1.713c0.767,0.455,1.962,0.961,3.591,1.525c1.688,0.563,3.089,1.119,4.2,1.666
				c1.109,0.547,2.064,1.314,2.862,2.299c0.798,0.986,1.196,2.215,1.196,3.684c0,1.691-0.508,3.145-1.525,4.365
				s-2.409,2.15-4.176,2.793c-1.769,0.641-3.778,0.961-6.031,0.961C891.282,836.568,889.429,836.24,887.786,835.584z"/>
			<path fill="#F7C201" d="M918.268,827.184c-0.032,0.156-0.048,0.359-0.048,0.609c0,0.564,0.165,0.971,0.494,1.221
				c0.327,0.25,0.867,0.375,1.617,0.375h2.863l-1.22,6.805h-4.084c-5.255,0-7.884-2.205-7.884-6.617
				c0-0.656,0.078-1.484,0.236-2.486l1.876-10.418h-3.191l1.174-6.664h3.19l1.127-6.383h8.024l-1.126,6.383h5.256l-1.173,6.664
				h-5.257L918.268,827.184z"/>
			<path fill="#F7C201" d="M941.144,811.063c1.58-0.891,3.229-1.338,4.95-1.338l-1.501,8.494h-2.205
				c-2.002,0-3.582,0.432-4.739,1.291c-1.158,0.861-1.925,2.371-2.3,4.529l-2.159,12.154h-8.024l4.599-26.186h8.024l-0.845,4.74
				C938.164,813.184,939.564,811.953,941.144,811.063z"/>
			<path fill="#F7C201" d="M947.503,815.967c1.377-2.033,3.033-3.598,4.974-4.693c1.94-1.094,3.99-1.643,6.147-1.643
				c1.847,0,3.396,0.377,4.646,1.127c1.252,0.752,2.158,1.736,2.721,2.957l0.659-3.707h8.024l-4.646,26.186h-8.025l0.704-3.707
				c-1.002,1.219-2.27,2.205-3.802,2.955c-1.532,0.752-3.224,1.127-5.068,1.127c-1.847,0-3.481-0.422-4.903-1.266
				c-1.425-0.846-2.527-2.043-3.31-3.592c-0.782-1.547-1.173-3.371-1.173-5.467c0-1.002,0.095-2.064,0.282-3.191
				C945.203,820.363,946.126,818,947.503,815.967z M964.491,821.551c0-1.533-0.446-2.736-1.338-3.613
				c-0.891-0.877-2.025-1.314-3.402-1.314c-1.595,0-3.051,0.572-4.364,1.713c-1.313,1.143-2.144,2.715-2.487,4.717
				c-0.094,0.564-0.141,1.082-0.141,1.549c0,1.535,0.445,2.744,1.338,3.637c0.892,0.893,2.01,1.338,3.355,1.338
				c1.595,0,3.05-0.578,4.363-1.736c1.314-1.156,2.158-2.736,2.535-4.74C964.444,822.537,964.491,822.021,964.491,821.551z"/>
			<path fill="#F7C201" d="M978.241,815.967c1.469-2.033,3.291-3.598,5.467-4.693c2.174-1.094,4.544-1.643,7.109-1.643
				c3.285,0,5.881,0.859,7.79,2.582c1.908,1.721,2.926,4.146,3.051,7.273h-8.541c-0.346-2-1.565-3.004-3.661-3.004
				c-1.471,0-2.737,0.57-3.801,1.713c-1.064,1.143-1.783,2.777-2.159,4.904c-0.125,0.658-0.188,1.346-0.188,2.066
				c0,1.469,0.345,2.596,1.033,3.377c0.687,0.781,1.626,1.174,2.814,1.174c2.065,0,3.614-1,4.646-3.004h8.588
				c-1.22,3.066-3.098,5.477-5.631,7.227c-2.534,1.754-5.429,2.629-8.683,2.629c-3.378,0-6.062-0.93-8.049-2.793
				c-1.986-1.859-2.979-4.402-2.979-7.625c0-0.969,0.094-1.986,0.281-3.051C975.8,820.379,976.771,818,978.241,815.967z"/>
			<path fill="#F7C201" d="M1014.328,810.008l-4.598,26.186h-8.024l4.598-26.186H1014.328z M1007.876,806.277
				c-0.736-0.674-1.103-1.527-1.103-2.559c0-1.408,0.547-2.613,1.642-3.613c1.096-1.002,2.425-1.502,3.989-1.502
				c1.251,0,2.236,0.336,2.956,1.008c0.721,0.674,1.08,1.543,1.08,2.605c0,1.377-0.548,2.566-1.643,3.566
				c-1.096,1.002-2.41,1.502-3.941,1.502C1009.604,807.285,1008.61,806.949,1007.876,806.277z"/>
			<path fill="#F7C201" d="M1020.241,835.207c-1.753-0.904-3.106-2.189-4.06-3.848c-0.955-1.658-1.432-3.582-1.432-5.771
				c0-2.973,0.703-5.68,2.112-8.119c1.407-2.441,3.347-4.357,5.818-5.75c2.471-1.391,5.226-2.088,8.26-2.088
				c2.252,0,4.263,0.463,6.03,1.385c1.768,0.924,3.136,2.213,4.106,3.871c0.969,1.66,1.454,3.584,1.454,5.773
				c0,3.002-0.712,5.717-2.135,8.143c-1.425,2.424-3.378,4.326-5.866,5.701c-2.487,1.377-5.249,2.064-8.282,2.064
				C1023.995,836.568,1021.993,836.115,1020.241,835.207z M1030.918,828.473c1.048-0.797,1.86-1.83,2.439-3.098
				c0.579-1.266,0.868-2.588,0.868-3.965c0-1.563-0.423-2.77-1.267-3.613c-0.846-0.846-1.909-1.268-3.191-1.268
				c-1.346,0-2.527,0.398-3.544,1.199c-1.017,0.797-1.806,1.836-2.37,3.119c-0.563,1.283-0.845,2.627-0.845,4.035
				c0,1.533,0.407,2.715,1.222,3.545c0.812,0.828,1.859,1.242,3.144,1.242C1028.688,829.67,1029.869,829.271,1030.918,828.473z
				 M1037.604,803.109l-12.202,4.738l0.986-5.537l12.295-5.443L1037.604,803.109z"/>
			<path fill="#F7C201" d="M1069.704,811.932c1.501,1.471,2.254,3.52,2.254,6.146c0,0.877-0.096,1.816-0.283,2.816l-2.721,15.299
				h-7.979l2.534-14.219c0.094-0.533,0.142-1.002,0.142-1.408c0-1.314-0.369-2.332-1.104-3.051c-0.736-0.719-1.761-1.08-3.073-1.08
				c-1.565,0-2.879,0.486-3.942,1.455c-1.063,0.971-1.753,2.332-2.065,4.084v-0.234l-2.534,14.453h-8.024l4.599-26.186h8.025
				l-0.61,3.52c1.032-1.158,2.292-2.08,3.776-2.77c1.486-0.688,3.091-1.033,4.812-1.033
				C1066.138,809.725,1068.202,810.461,1069.704,811.932z"/>
			<path fill="#F7C201" d="M1110.86,828.449l6.569,7.744h-9.339l-2.533-2.957c-3.411,2.316-7.243,3.475-11.498,3.475
				c-3.442,0-6.155-0.76-8.143-2.277c-1.986-1.518-2.979-3.574-2.979-6.17c0-2.473,0.806-4.678,2.416-6.619
				c1.612-1.938,3.763-3.486,6.454-4.645c-0.971-1.502-1.456-2.973-1.456-4.412c0-1.908,0.501-3.605,1.503-5.092
				c1-1.486,2.394-2.635,4.176-3.449c1.783-0.814,3.801-1.221,6.055-1.221c2.814,0,4.98,0.643,6.499,1.924
				c1.517,1.285,2.276,2.91,2.276,4.881c0,0.406-0.047,0.879-0.141,1.408h-7.509c0.03-0.123,0.046-0.313,0.046-0.563
				c0-0.594-0.203-1.057-0.608-1.385c-0.408-0.328-0.924-0.492-1.55-0.492c-0.844,0-1.564,0.273-2.158,0.82
				c-0.595,0.549-0.893,1.244-0.893,2.09c0,1.094,0.626,2.424,1.878,3.988l6.616,7.836l0.846-1.313l2.252-2.957h8.072l-2.957,4.082
				C1113.378,825.305,1112.081,827.074,1110.86,828.449z M1101.475,828.496l-6.054-7.086c-1.347,0.627-2.395,1.4-3.146,2.324
				c-0.75,0.922-1.125,1.932-1.125,3.027c0,1.031,0.398,1.867,1.196,2.51c0.799,0.641,1.901,0.961,3.309,0.961
				C1097.75,830.232,1099.69,829.654,1101.475,828.496z"/>
			<path fill="#F7C201" d="M1155.09,804.867c2.204,1.08,3.896,2.598,5.068,4.553c1.174,1.957,1.76,4.248,1.76,6.875
				c0,0.908-0.11,2.051-0.329,3.426c-0.563,3.225-1.776,6.086-3.636,8.59c-1.862,2.502-4.225,4.441-7.087,5.818
				c-2.863,1.377-6.016,2.064-9.456,2.064h-12.343l5.819-32.945h12.342C1150.263,803.248,1152.884,803.789,1155.09,804.867z
				 M1149.67,826.807c2.001-1.688,3.253-4.051,3.754-7.086c0.155-0.938,0.235-1.721,0.235-2.346c0-2.316-0.704-4.107-2.112-5.373
				c-1.408-1.27-3.411-1.9-6.007-1.9h-3.849l-3.378,19.242h3.801C1145.148,829.344,1147.667,828.496,1149.67,826.807z"/>
			<path fill="#F7C201" d="M1174.54,810.008l-4.598,26.186h-8.024l4.599-26.186H1174.54z M1168.089,806.277
				c-0.736-0.674-1.103-1.527-1.103-2.559c0-1.408,0.546-2.613,1.642-3.613c1.095-1.002,2.425-1.502,3.988-1.502
				c1.251,0,2.236,0.336,2.957,1.008c0.72,0.674,1.08,1.543,1.08,2.605c0,1.377-0.549,2.566-1.643,3.566
				c-1.096,1.002-2.41,1.502-3.942,1.502C1169.816,807.285,1168.823,806.949,1168.089,806.277z"/>
			<path fill="#F7C201" d="M1179.819,835.584c-1.642-0.658-2.932-1.572-3.87-2.746s-1.409-2.525-1.409-4.059
				c0-0.219,0.031-0.611,0.094-1.174h7.744c-0.063,0.971,0.227,1.744,0.869,2.322c0.641,0.58,1.555,0.869,2.744,0.869
				c1.002,0,1.83-0.188,2.487-0.564c0.657-0.375,0.986-0.908,0.986-1.596c0-0.656-0.352-1.18-1.057-1.572
				c-0.704-0.391-1.87-0.867-3.495-1.43c-1.689-0.563-3.105-1.119-4.247-1.666c-1.144-0.549-2.12-1.338-2.935-2.371
				c-0.814-1.031-1.219-2.33-1.219-3.895c0-1.533,0.452-2.916,1.36-4.152c0.907-1.236,2.183-2.197,3.825-2.887
				c1.643-0.688,3.543-1.033,5.701-1.033c2.159,0,4.036,0.354,5.632,1.057s2.831,1.682,3.708,2.934
				c0.876,1.25,1.313,2.658,1.313,4.223l-0.047,0.705h-7.274c0.063-0.939-0.219-1.689-0.844-2.254
				c-0.627-0.563-1.52-0.844-2.676-0.844c-0.908,0-1.65,0.188-2.229,0.563s-0.868,0.891-0.868,1.549c0,0.688,0.383,1.26,1.15,1.713
				c0.767,0.455,1.963,0.961,3.59,1.525c1.689,0.563,3.09,1.119,4.199,1.666c1.111,0.547,2.066,1.314,2.863,2.299
				c0.798,0.986,1.197,2.215,1.197,3.684c0,1.691-0.508,3.145-1.525,4.365s-2.409,2.15-4.178,2.793
				c-1.767,0.641-3.777,0.961-6.029,0.961C1183.317,836.568,1181.463,836.24,1179.819,835.584z"/>
			<path fill="#F7C201" d="M1223.792,812.377c1.987,1.83,2.98,4.326,2.98,7.484c0,1.033-0.078,1.955-0.234,2.77
				c-0.125,0.721-0.313,1.484-0.563,2.301h-18.162c-0.031,0.188-0.046,0.484-0.046,0.891c0,1.377,0.375,2.426,1.125,3.145
				c0.751,0.719,1.753,1.078,3.005,1.078c2.001,0,3.533-0.844,4.598-2.533h8.541c-1.127,2.66-2.956,4.834-5.49,6.523
				c-2.533,1.688-5.383,2.533-8.541,2.533c-3.379,0-6.078-0.938-8.096-2.816c-2.018-1.877-3.026-4.428-3.026-7.648
				c0-0.969,0.094-1.969,0.281-3.004c0.469-2.721,1.438-5.1,2.909-7.133s3.301-3.598,5.491-4.693
				c2.19-1.094,4.583-1.643,7.181-1.643C1219.124,809.631,1221.806,810.547,1223.792,812.377z M1218.748,819.957
				c0-1.252-0.392-2.215-1.173-2.889c-0.783-0.672-1.814-1.008-3.098-1.008c-1.377,0-2.59,0.416-3.637,1.242
				c-1.049,0.83-1.808,2.014-2.276,3.545h10.09C1218.716,820.41,1218.748,820.113,1218.748,819.957z"/>
			<path fill="#F7C201" d="M1253.851,811.932c1.501,1.471,2.252,3.52,2.252,6.146c0,0.877-0.094,1.816-0.281,2.816l-2.722,15.299
				h-7.978l2.534-14.219c0.095-0.533,0.141-1.002,0.141-1.408c0-1.314-0.369-2.332-1.103-3.051c-0.736-0.719-1.761-1.08-3.074-1.08
				c-1.566,0-2.879,0.486-3.943,1.455c-1.063,0.971-1.752,2.332-2.064,4.084v-0.234l-2.533,14.453h-8.025l4.6-26.186h8.023
				l-0.609,3.52c1.033-1.158,2.291-2.08,3.777-2.77c1.486-0.688,3.09-1.033,4.812-1.033
				C1250.283,809.725,1252.349,810.461,1253.851,811.932z M1244.466,800.621c0.686,0,1.281,0.104,1.781,0.305
				c0.501,0.203,1.063,0.508,1.691,0.916c0.469,0.313,0.875,0.539,1.219,0.68s0.705,0.211,1.08,0.211
				c1.188,0,1.985-0.703,2.393-2.111h4.13c-1.532,4.631-4.099,6.945-7.696,6.945c-0.688,0-1.283-0.102-1.783-0.305
				s-1.064-0.508-1.689-0.914c-0.469-0.313-0.876-0.541-1.22-0.682c-0.346-0.143-0.704-0.211-1.079-0.211
				c-1.127,0-1.94,0.705-2.441,2.111h-4.083C1238.3,802.938,1240.866,800.621,1244.466,800.621z"/>
			<path fill="#F7C201" d="M1263.378,835.207c-1.753-0.904-3.106-2.189-4.061-3.848c-0.955-1.658-1.432-3.582-1.432-5.771
				c0-2.973,0.703-5.68,2.112-8.119c1.408-2.441,3.347-4.357,5.819-5.75c2.471-1.391,5.225-2.088,8.26-2.088
				c2.252,0,4.262,0.463,6.03,1.385c1.767,0.924,3.136,2.213,4.106,3.871c0.969,1.66,1.453,3.584,1.453,5.773
				c0,3.002-0.711,5.717-2.135,8.143c-1.424,2.424-3.377,4.326-5.865,5.701c-2.488,1.377-5.25,2.064-8.283,2.064
				C1267.132,836.568,1265.129,836.115,1263.378,835.207z M1274.054,828.473c1.048-0.797,1.86-1.83,2.439-3.098
				c0.58-1.266,0.868-2.588,0.868-3.965c0-1.563-0.422-2.77-1.267-3.613c-0.846-0.846-1.908-1.268-3.191-1.268
				c-1.346,0-2.527,0.398-3.543,1.199c-1.018,0.797-1.807,1.836-2.371,3.119c-0.563,1.283-0.844,2.627-0.844,4.035
				c0,1.533,0.406,2.715,1.221,3.545c0.813,0.828,1.86,1.242,3.145,1.242C1271.824,829.67,1273.005,829.271,1274.054,828.473z"/>
		</g>
		<polygon fill="#FFFFFF" points="384.687,236.51 355.687,219.01 514.524,204.898 581.854,112.678 581.854,148.012 525.849,225.119 
					"/>
		
			<rect x="781.52" y="807.01" transform="matrix(0.7071 0.7071 -0.7071 0.7071 813.0438 -321.8419)" fill="#D10A00" width="27" height="27"/>
	</g>
</g>
<g id="Capa_4">
</g>
</svg>
