<?xml version="1.0" encoding="utf-8"?>
<!-- Generator: Adobe Illustrator 16.0.0, SVG Export Plug-In . SVG Version: 6.00 Build 0)  -->
<!DOCTYPE svg PUBLIC "-//W3C//DTD SVG 1.1//EN" "http://www.w3.org/Graphics/SVG/1.1/DTD/svg11.dtd">
<svg version="1.1" xmlns="http://www.w3.org/2000/svg" xmlns:xlink="http://www.w3.org/1999/xlink" x="0px" y="0px" width="2000px"
	 height="2000px" viewBox="0 0 2000 2000" enable-background="new 0 0 2000 2000" xml:space="preserve">
<g id="Capa_1">
</g>
<g id="JUSTIFICACION">
</g>
<g id="Capa_3">
	<rect y="0.001" fill="#F7C201" width="2000" height="2000.001"/>
	<g>
		<g>
			<polygon points="1366.04,904.238 1350.596,966.867 1481.787,966.867 1455.748,1071.474 1324.74,1071.474 1308.658,1136.594 
				1507.193,1136.232 1553.518,1306.956 1097.727,1306.731 1241.326,735.321 1241.277,734.781 1696.167,734.419 1567.104,904.238 
							"/>
			<polygon points="1205.637,734.87 1062.719,1306.775 769.724,1306.688 715.563,1181.561 599.361,1306.775 303.833,1306.688 
				446.117,734.508 631.754,858.41 558.604,1113.634 776.507,937.727 907.299,1115.127 963.893,868.324 			"/>
			<path d="M916.354,711.319l-47.54-153.971l-115.49,143.79l-232.08,26.811l150.58,109.439l-63.41,199.25l178.11-143.41
				l107.92,143.41l43.42-198.52l201.53-110.36L916.354,711.319z M911.804,820.959l-28.261,153.18l-86.26-121.939l-135.32,107.069
				l41.641-133.84l-113.01-77.33l184.399-20.819l80.29-105.59l28.26,110.05l178.45,14.87L911.804,820.959z"/>
			<polygon fill="#F7C201" points="1061.993,746.609 911.804,820.959 883.543,974.139 797.283,852.199 661.963,959.269 
				703.604,825.429 590.594,748.099 774.993,727.279 855.283,621.689 883.543,731.739 			"/>
		</g>
		<g>
			<path d="M1108.295,1337.198l-5.819,32.944h-8.024l5.818-32.944H1108.295z"/>
			<path d="M1121.199,1335.415l-6.146,34.728h-8.025l6.147-34.728H1121.199z"/>
			<path d="M1150.061,1343.957l-4.598,26.186h-8.026l0.611-3.566c-1.033,1.158-2.293,2.088-3.779,2.792
				c-1.485,0.704-3.073,1.057-4.763,1.057c-2.627,0-4.691-0.743-6.194-2.229c-1.502-1.486-2.252-3.56-2.252-6.219
				c0-1.001,0.077-1.908,0.234-2.723l2.722-15.297h7.978l-2.487,14.219c-0.094,0.502-0.141,0.986-0.141,1.454
				c0,1.315,0.367,2.323,1.104,3.026c0.734,0.705,1.759,1.057,3.072,1.057c1.503,0,2.777-0.444,3.825-1.336
				c1.048-0.893,1.745-2.168,2.089-3.826l2.581-14.594H1150.061z"/>
			<path d="M1155.293,1369.533c-1.643-0.658-2.934-1.572-3.872-2.746s-1.408-2.525-1.408-4.059c0-0.219,0.031-0.61,0.095-1.174
				h7.743c-0.063,0.971,0.227,1.744,0.868,2.322c0.641,0.58,1.557,0.869,2.744,0.869c1.002,0,1.831-0.188,2.487-0.563
				c0.657-0.376,0.985-0.908,0.985-1.596c0-0.656-0.351-1.181-1.055-1.572s-1.869-0.868-3.496-1.431
				c-1.689-0.563-3.105-1.119-4.247-1.666c-1.143-0.548-2.12-1.338-2.934-2.37c-0.814-1.032-1.22-2.331-1.22-3.896
				c0-1.532,0.453-2.916,1.36-4.152c0.907-1.235,2.183-2.197,3.825-2.887c1.643-0.688,3.543-1.033,5.702-1.033
				c2.158,0,4.035,0.354,5.631,1.057c1.596,0.704,2.831,1.682,3.708,2.934c0.876,1.25,1.313,2.659,1.313,4.223l-0.047,0.705h-7.274
				c0.063-0.939-0.22-1.689-0.844-2.254c-0.627-0.562-1.519-0.844-2.676-0.844c-0.908,0-1.65,0.188-2.229,0.563
				c-0.579,0.376-0.867,0.891-0.867,1.55c0,0.687,0.382,1.259,1.149,1.712c0.767,0.455,1.962,0.962,3.591,1.525
				c1.688,0.563,3.089,1.119,4.2,1.666c1.109,0.547,2.064,1.314,2.862,2.3s1.196,2.214,1.196,3.683c0,1.691-0.508,3.145-1.525,4.365
				s-2.409,2.151-4.176,2.793c-1.769,0.641-3.778,0.962-6.031,0.962C1158.789,1370.519,1156.936,1370.189,1155.293,1369.533z"/>
			<path d="M1185.774,1361.133c-0.032,0.156-0.048,0.359-0.048,0.609c0,0.564,0.165,0.971,0.494,1.221
				c0.327,0.25,0.867,0.375,1.617,0.375h2.863l-1.22,6.805h-4.084c-5.255,0-7.884-2.205-7.884-6.617
				c0-0.656,0.078-1.484,0.236-2.486l1.876-10.418h-3.191l1.174-6.664h3.19l1.127-6.383h8.024l-1.126,6.383h5.256l-1.173,6.664
				h-5.257L1185.774,1361.133z"/>
			<path d="M1208.65,1345.012c1.58-0.891,3.229-1.338,4.95-1.338l-1.501,8.495h-2.205c-2.002,0-3.582,0.431-4.739,1.29
				c-1.158,0.861-1.925,2.371-2.3,4.529l-2.159,12.154h-8.024l4.599-26.186h8.024l-0.845,4.74
				C1205.671,1347.133,1207.071,1345.903,1208.65,1345.012z"/>
			<path d="M1215.01,1349.916c1.377-2.033,3.033-3.598,4.974-4.693c1.94-1.094,3.99-1.643,6.147-1.643
				c1.847,0,3.396,0.377,4.646,1.127c1.252,0.752,2.158,1.736,2.721,2.957l0.659-3.707h8.024l-4.646,26.186h-8.025l0.704-3.707
				c-1.002,1.219-2.27,2.205-3.802,2.956s-3.224,1.127-5.068,1.127c-1.847,0-3.481-0.423-4.903-1.267
				c-1.425-0.846-2.527-2.043-3.31-3.592c-0.782-1.547-1.173-3.371-1.173-5.467c0-1.001,0.095-2.064,0.282-3.191
				C1212.71,1354.313,1213.633,1351.95,1215.01,1349.916z M1231.998,1355.5c0-1.532-0.446-2.736-1.338-3.613
				c-0.891-0.876-2.025-1.313-3.402-1.313c-1.595,0-3.051,0.571-4.364,1.713c-1.313,1.143-2.144,2.714-2.487,4.716
				c-0.094,0.564-0.141,1.082-0.141,1.549c0,1.535,0.445,2.744,1.338,3.637c0.892,0.893,2.01,1.338,3.355,1.338
				c1.595,0,3.05-0.578,4.363-1.736c1.314-1.156,2.158-2.736,2.535-4.739C1231.951,1356.486,1231.998,1355.971,1231.998,1355.5z"/>
			<path d="M1245.748,1349.916c1.469-2.033,3.291-3.598,5.467-4.693c2.174-1.094,4.544-1.643,7.109-1.643
				c3.285,0,5.881,0.86,7.79,2.582c1.908,1.721,2.926,4.146,3.051,7.273h-8.541c-0.346-2-1.565-3.004-3.661-3.004
				c-1.471,0-2.737,0.571-3.801,1.714c-1.064,1.143-1.783,2.776-2.159,4.904c-0.125,0.657-0.188,1.345-0.188,2.065
				c0,1.469,0.345,2.597,1.033,3.378c0.687,0.781,1.626,1.173,2.814,1.173c2.065,0,3.614-1,4.646-3.003h8.588
				c-1.22,3.066-3.098,5.476-5.631,7.227c-2.534,1.753-5.429,2.629-8.683,2.629c-3.378,0-6.062-0.931-8.049-2.794
				c-1.986-1.859-2.979-4.402-2.979-7.624c0-0.97,0.094-1.987,0.281-3.051C1243.307,1354.328,1244.277,1351.95,1245.748,1349.916z"
				/>
			<path d="M1281.835,1343.957l-4.598,26.186h-8.024l4.598-26.186H1281.835z M1275.383,1340.227
				c-0.736-0.674-1.103-1.526-1.103-2.559c0-1.408,0.547-2.612,1.642-3.612c1.096-1.003,2.425-1.503,3.989-1.503
				c1.251,0,2.236,0.337,2.956,1.009c0.721,0.673,1.08,1.542,1.08,2.604c0,1.377-0.548,2.566-1.643,3.566
				c-1.096,1.002-2.41,1.502-3.941,1.502C1277.111,1341.234,1276.117,1340.898,1275.383,1340.227z"/>
			<path d="M1287.748,1369.157c-1.753-0.905-3.106-2.19-4.06-3.848c-0.955-1.659-1.432-3.583-1.432-5.772
				c0-2.973,0.703-5.679,2.112-8.119c1.407-2.44,3.347-4.356,5.818-5.75c2.471-1.391,5.226-2.088,8.26-2.088
				c2.252,0,4.263,0.463,6.03,1.385c1.768,0.924,3.136,2.214,4.106,3.871c0.969,1.66,1.454,3.584,1.454,5.773
				c0,3.003-0.712,5.718-2.135,8.143c-1.425,2.424-3.378,4.326-5.866,5.701c-2.487,1.377-5.249,2.065-8.282,2.065
				C1291.502,1370.519,1289.5,1370.065,1287.748,1369.157z M1298.425,1362.422c1.048-0.797,1.86-1.83,2.439-3.097
				c0.579-1.266,0.868-2.589,0.868-3.965c0-1.563-0.423-2.77-1.267-3.614c-0.846-0.845-1.909-1.267-3.191-1.267
				c-1.346,0-2.527,0.397-3.544,1.198c-1.017,0.797-1.806,1.837-2.37,3.119c-0.563,1.283-0.845,2.627-0.845,4.035
				c0,1.533,0.407,2.715,1.222,3.545c0.812,0.828,1.859,1.242,3.144,1.242C1296.194,1363.619,1297.376,1363.221,1298.425,1362.422z
				 M1305.111,1337.059l-12.202,4.738l0.986-5.537l12.295-5.443L1305.111,1337.059z"/>
			<path d="M1337.211,1345.881c1.501,1.471,2.254,3.52,2.254,6.146c0,0.877-0.096,1.816-0.283,2.816l-2.721,15.299h-7.979
				l2.534-14.219c0.094-0.533,0.142-1.002,0.142-1.408c0-1.314-0.369-2.331-1.104-3.051c-0.736-0.719-1.761-1.08-3.073-1.08
				c-1.565,0-2.879,0.486-3.942,1.456s-1.753,2.331-2.065,4.083v-0.234l-2.534,14.453h-8.024l4.599-26.186h8.025l-0.61,3.52
				c1.032-1.158,2.292-2.08,3.776-2.77c1.486-0.688,3.091-1.033,4.812-1.033C1333.645,1343.674,1335.709,1344.41,1337.211,1345.881z
				"/>
			<path d="M1378.367,1362.398l6.569,7.744h-9.339l-2.533-2.957c-3.411,2.316-7.243,3.475-11.498,3.475
				c-3.442,0-6.155-0.76-8.143-2.277c-1.986-1.518-2.979-3.574-2.979-6.17c0-2.473,0.806-4.678,2.416-6.619
				c1.612-1.938,3.763-3.486,6.454-4.645c-0.971-1.502-1.456-2.973-1.456-4.412c0-1.908,0.501-3.605,1.503-5.092
				c1-1.486,2.394-2.635,4.176-3.449c1.783-0.813,3.801-1.22,6.055-1.22c2.814,0,4.98,0.642,6.499,1.924
				c1.517,1.284,2.276,2.909,2.276,4.88c0,0.407-0.047,0.879-0.141,1.408h-7.509c0.03-0.123,0.046-0.312,0.046-0.563
				c0-0.594-0.203-1.057-0.608-1.385c-0.408-0.328-0.924-0.492-1.55-0.492c-0.844,0-1.564,0.273-2.158,0.82
				c-0.595,0.549-0.893,1.244-0.893,2.09c0,1.094,0.626,2.424,1.878,3.988l6.616,7.836l0.846-1.313l2.252-2.957h8.072l-2.957,4.082
				C1380.885,1359.254,1379.588,1361.023,1378.367,1362.398z M1368.981,1362.445l-6.054-7.085c-1.347,0.626-2.395,1.399-3.146,2.323
				c-0.75,0.922-1.125,1.932-1.125,3.027c0,1.031,0.398,1.868,1.196,2.51c0.799,0.642,1.901,0.962,3.309,0.962
				C1365.257,1364.183,1367.197,1363.604,1368.981,1362.445z"/>
			<path d="M1422.597,1338.817c2.204,1.079,3.896,2.597,5.068,4.552c1.174,1.957,1.76,4.248,1.76,6.875
				c0,0.908-0.11,2.051-0.329,3.426c-0.563,3.225-1.776,6.086-3.636,8.59c-1.862,2.502-4.225,4.441-7.087,5.818
				c-2.863,1.377-6.016,2.064-9.456,2.064h-12.343l5.819-32.944h12.342C1417.77,1337.198,1420.391,1337.738,1422.597,1338.817z
				 M1417.177,1360.757c2.001-1.688,3.253-4.051,3.754-7.087c0.155-0.938,0.235-1.72,0.235-2.346c0-2.315-0.704-4.107-2.112-5.373
				c-1.408-1.269-3.411-1.9-6.007-1.9h-3.849l-3.378,19.242h3.801C1412.655,1363.293,1415.174,1362.445,1417.177,1360.757z"/>
			<path d="M1442.047,1343.957l-4.598,26.186h-8.024l4.599-26.186H1442.047z M1435.596,1340.227
				c-0.736-0.674-1.103-1.526-1.103-2.559c0-1.408,0.546-2.612,1.642-3.612c1.095-1.003,2.425-1.503,3.988-1.503
				c1.251,0,2.236,0.337,2.957,1.009c0.72,0.673,1.08,1.542,1.08,2.604c0,1.377-0.549,2.566-1.643,3.566
				c-1.096,1.002-2.41,1.502-3.942,1.502C1437.323,1341.234,1436.33,1340.898,1435.596,1340.227z"/>
			<path d="M1447.326,1369.533c-1.642-0.658-2.932-1.572-3.87-2.746s-1.409-2.525-1.409-4.059c0-0.219,0.031-0.61,0.094-1.174h7.744
				c-0.063,0.971,0.227,1.744,0.869,2.322c0.641,0.58,1.555,0.869,2.744,0.869c1.002,0,1.83-0.188,2.487-0.563
				s0.986-0.908,0.986-1.596c0-0.656-0.352-1.181-1.057-1.572c-0.704-0.392-1.87-0.868-3.495-1.431
				c-1.689-0.563-3.105-1.119-4.247-1.666c-1.144-0.548-2.12-1.338-2.935-2.37s-1.219-2.331-1.219-3.896
				c0-1.532,0.452-2.916,1.36-4.152c0.907-1.235,2.183-2.197,3.825-2.887c1.643-0.688,3.543-1.033,5.701-1.033
				c2.159,0,4.036,0.354,5.632,1.057c1.596,0.704,2.831,1.682,3.708,2.934c0.876,1.25,1.313,2.659,1.313,4.223l-0.047,0.705h-7.274
				c0.063-0.939-0.219-1.689-0.844-2.254c-0.627-0.562-1.52-0.844-2.676-0.844c-0.908,0-1.65,0.188-2.229,0.563
				c-0.579,0.376-0.868,0.891-0.868,1.55c0,0.687,0.383,1.259,1.15,1.712c0.767,0.455,1.963,0.962,3.59,1.525
				c1.689,0.563,3.09,1.119,4.199,1.666c1.111,0.547,2.066,1.314,2.863,2.3c0.798,0.985,1.197,2.214,1.197,3.683
				c0,1.691-0.508,3.145-1.525,4.365s-2.409,2.151-4.178,2.793c-1.767,0.641-3.777,0.962-6.029,0.962
				C1450.824,1370.519,1448.97,1370.189,1447.326,1369.533z"/>
			<path d="M1491.299,1346.326c1.987,1.83,2.98,4.326,2.98,7.484c0,1.033-0.078,1.956-0.234,2.77
				c-0.125,0.721-0.313,1.485-0.563,2.301h-18.162c-0.031,0.188-0.046,0.484-0.046,0.891c0,1.377,0.375,2.426,1.125,3.145
				c0.751,0.72,1.753,1.078,3.005,1.078c2.001,0,3.533-0.844,4.598-2.533h8.541c-1.127,2.66-2.956,4.834-5.49,6.523
				c-2.533,1.688-5.383,2.534-8.541,2.534c-3.379,0-6.078-0.938-8.096-2.816s-3.026-4.428-3.026-7.649
				c0-0.969,0.094-1.969,0.281-3.003c0.469-2.722,1.438-5.1,2.909-7.134c1.471-2.033,3.301-3.598,5.491-4.693
				c2.19-1.094,4.583-1.643,7.181-1.643C1486.631,1343.58,1489.313,1344.496,1491.299,1346.326z M1486.255,1353.906
				c0-1.252-0.392-2.215-1.173-2.888c-0.783-0.672-1.814-1.009-3.098-1.009c-1.377,0-2.59,0.416-3.637,1.243
				c-1.049,0.829-1.808,2.013-2.276,3.544h10.09C1486.223,1354.359,1486.255,1354.063,1486.255,1353.906z"/>
			<path d="M1521.357,1345.881c1.501,1.471,2.252,3.52,2.252,6.146c0,0.877-0.094,1.816-0.281,2.816l-2.722,15.299h-7.978
				l2.534-14.219c0.095-0.533,0.141-1.002,0.141-1.408c0-1.314-0.369-2.331-1.103-3.051c-0.736-0.719-1.761-1.08-3.074-1.08
				c-1.566,0-2.879,0.486-3.943,1.456c-1.063,0.97-1.752,2.331-2.064,4.083v-0.234l-2.533,14.453h-8.025l4.6-26.186h8.023
				l-0.609,3.52c1.033-1.158,2.291-2.08,3.777-2.77c1.486-0.688,3.09-1.033,4.812-1.033
				C1517.79,1343.674,1519.855,1344.41,1521.357,1345.881z M1511.973,1334.57c0.686,0,1.281,0.104,1.781,0.305
				c0.501,0.204,1.063,0.509,1.691,0.916c0.469,0.313,0.875,0.539,1.219,0.68s0.705,0.211,1.08,0.211
				c1.188,0,1.985-0.703,2.393-2.111h4.13c-1.532,4.631-4.099,6.945-7.696,6.945c-0.688,0-1.283-0.102-1.783-0.305
				s-1.064-0.508-1.689-0.914c-0.469-0.313-0.876-0.541-1.22-0.682c-0.346-0.142-0.704-0.211-1.079-0.211
				c-1.127,0-1.94,0.705-2.441,2.111h-4.083C1505.807,1336.887,1508.373,1334.57,1511.973,1334.57z"/>
			<path d="M1530.885,1369.157c-1.753-0.905-3.106-2.19-4.061-3.848c-0.955-1.659-1.432-3.583-1.432-5.772
				c0-2.973,0.703-5.679,2.112-8.119c1.408-2.44,3.347-4.356,5.819-5.75c2.471-1.391,5.225-2.088,8.26-2.088
				c2.252,0,4.262,0.463,6.03,1.385c1.767,0.924,3.136,2.214,4.106,3.871c0.969,1.66,1.453,3.584,1.453,5.773
				c0,3.003-0.711,5.718-2.135,8.143c-1.424,2.424-3.377,4.326-5.865,5.701c-2.488,1.377-5.25,2.065-8.283,2.065
				C1534.639,1370.519,1532.636,1370.065,1530.885,1369.157z M1541.561,1362.422c1.048-0.797,1.86-1.83,2.439-3.097
				c0.58-1.266,0.868-2.589,0.868-3.965c0-1.563-0.422-2.77-1.267-3.614c-0.846-0.845-1.908-1.267-3.191-1.267
				c-1.346,0-2.527,0.397-3.543,1.198c-1.018,0.797-1.807,1.837-2.371,3.119c-0.563,1.283-0.844,2.627-0.844,4.035
				c0,1.533,0.406,2.715,1.221,3.545c0.813,0.828,1.86,1.242,3.145,1.242C1539.331,1363.619,1540.512,1363.221,1541.561,1362.422z"
				/>
		</g>
		<polygon fill="#FFFFFF" points="652.193,770.459 623.193,752.959 782.031,738.849 849.36,646.627 849.36,681.961 793.355,759.069 
					"/>
		
			<rect x="1049.026" y="1340.959" transform="matrix(0.7071 0.7071 -0.7071 0.7071 1268.9539 -354.6077)" fill="#D10A00" width="27" height="27"/>
	</g>
</g>
<g id="Capa_4">
</g>
</svg>
