<?xml version="1.0" encoding="utf-8"?>
<!-- Generator: Adobe Illustrator 16.0.0, SVG Export Plug-In . SVG Version: 6.00 Build 0)  -->
<!DOCTYPE svg PUBLIC "-//W3C//DTD SVG 1.1//EN" "http://www.w3.org/Graphics/SVG/1.1/DTD/svg11.dtd">
<svg version="1.1" xmlns="http://www.w3.org/2000/svg" xmlns:xlink="http://www.w3.org/1999/xlink" x="0px" y="0px" width="1472px"
	 height="863px" viewBox="0 0 1472 863" enable-background="new 0 0 1472 863" xml:space="preserve">
<g id="Capa_1">
</g>
<g id="JUSTIFICACION">
</g>
<g id="Capa_3">
	<g>
		<polygon points="1102.04,370.288 1086.596,432.917 1217.787,432.917 1191.748,537.524 1060.74,537.524 1044.658,602.644 
			1243.193,602.282 1289.518,773.007 833.727,772.782 977.326,201.372 977.277,200.831 1432.167,200.47 1303.104,370.288 		"/>
		<polygon points="941.637,200.921 798.719,772.825 505.724,772.737 451.563,647.61 335.361,772.825 39.833,772.737 
			182.117,200.558 367.754,324.46 294.604,579.685 512.507,403.776 643.299,581.177 699.893,334.374 		"/>
		<path d="M652.354,177.37l-47.54-153.971l-115.49,143.789l-232.08,26.811l150.58,109.439l-63.41,199.25l178.11-143.41
			l107.92,143.41l43.42-198.52l201.53-110.359L652.354,177.37z M647.804,287.009l-28.261,153.18l-86.26-121.939l-135.32,107.07
			l41.641-133.84l-113.01-77.33l184.399-20.82l80.29-105.59l28.26,110.051l178.45,14.869L647.804,287.009z"/>
		<polygon fill="#F7C201" points="797.993,212.659 647.804,287.009 619.543,440.188 533.283,318.249 397.963,425.319 
			439.604,291.479 326.594,214.149 510.993,193.329 591.283,87.739 619.543,197.79 		"/>
		<g>
			<g>
				<path d="M844.295,803.249l-5.819,32.943h-8.024l5.818-32.943H844.295z"/>
				<path d="M857.199,801.466l-6.146,34.727h-8.025l6.147-34.727H857.199z"/>
				<path d="M886.061,810.007l-4.598,26.186h-8.026l0.611-3.566c-1.033,1.158-2.293,2.088-3.779,2.793
					c-1.485,0.703-3.073,1.057-4.763,1.057c-2.627,0-4.691-0.744-6.194-2.23c-1.502-1.486-2.252-3.559-2.252-6.219
					c0-1,0.077-1.908,0.234-2.723l2.722-15.297h7.978l-2.487,14.219c-0.094,0.502-0.141,0.986-0.141,1.455
					c0,1.314,0.367,2.322,1.104,3.025c0.734,0.705,1.759,1.057,3.072,1.057c1.503,0,2.777-0.443,3.825-1.336
					s1.745-2.168,2.089-3.826l2.581-14.594H886.061z"/>
				<path d="M891.293,835.583c-1.643-0.658-2.934-1.572-3.872-2.746s-1.408-2.525-1.408-4.059c0-0.219,0.031-0.609,0.095-1.174
					h7.743c-0.063,0.971,0.227,1.744,0.868,2.322c0.641,0.58,1.557,0.869,2.744,0.869c1.002,0,1.831-0.188,2.487-0.563
					c0.657-0.377,0.985-0.908,0.985-1.596c0-0.656-0.351-1.182-1.055-1.572c-0.704-0.393-1.869-0.869-3.496-1.432
					c-1.689-0.563-3.105-1.119-4.247-1.666c-1.143-0.547-2.12-1.338-2.934-2.369c-0.814-1.033-1.22-2.332-1.22-3.896
					c0-1.531,0.453-2.916,1.36-4.152c0.907-1.234,2.183-2.197,3.825-2.887c1.643-0.688,3.543-1.033,5.702-1.033
					c2.158,0,4.035,0.354,5.631,1.057c1.596,0.705,2.831,1.682,3.708,2.934c0.876,1.25,1.313,2.66,1.313,4.223l-0.047,0.705h-7.274
					c0.063-0.939-0.22-1.689-0.844-2.254c-0.627-0.561-1.519-0.844-2.676-0.844c-0.908,0-1.65,0.188-2.229,0.563
					c-0.579,0.377-0.867,0.891-0.867,1.551c0,0.686,0.382,1.258,1.149,1.711c0.767,0.455,1.962,0.963,3.591,1.525
					c1.688,0.563,3.089,1.119,4.2,1.666c1.109,0.547,2.064,1.314,2.862,2.301c0.798,0.984,1.196,2.213,1.196,3.682
					c0,1.691-0.508,3.145-1.525,4.365s-2.409,2.152-4.176,2.793c-1.769,0.641-3.778,0.963-6.031,0.963
					C894.789,836.569,892.936,836.239,891.293,835.583z"/>
				<path d="M921.774,827.183c-0.032,0.156-0.048,0.359-0.048,0.609c0,0.564,0.165,0.971,0.494,1.221
					c0.327,0.25,0.867,0.375,1.617,0.375h2.863l-1.22,6.805h-4.084c-5.255,0-7.884-2.205-7.884-6.617
					c0-0.656,0.078-1.484,0.236-2.486l1.876-10.418h-3.191l1.174-6.664h3.19l1.127-6.383h8.024l-1.126,6.383h5.256l-1.173,6.664
					h-5.257L921.774,827.183z"/>
				<path d="M944.65,811.062c1.58-0.891,3.229-1.338,4.95-1.338l-1.501,8.496h-2.205c-2.002,0-3.582,0.43-4.739,1.289
					c-1.158,0.861-1.925,2.371-2.3,4.529l-2.159,12.154h-8.024l4.599-26.186h8.024l-0.845,4.74
					C941.671,813.183,943.071,811.954,944.65,811.062z"/>
				<path d="M951.01,815.966c1.377-2.033,3.033-3.598,4.974-4.693c1.94-1.094,3.99-1.643,6.147-1.643
					c1.847,0,3.396,0.377,4.646,1.127c1.252,0.752,2.158,1.736,2.721,2.957l0.659-3.707h8.024l-4.646,26.186h-8.025l0.704-3.707
					c-1.002,1.219-2.27,2.205-3.802,2.957c-1.532,0.75-3.224,1.127-5.068,1.127c-1.847,0-3.481-0.424-4.903-1.268
					c-1.425-0.846-2.527-2.043-3.31-3.592c-0.782-1.547-1.173-3.371-1.173-5.467c0-1,0.095-2.064,0.282-3.191
					C948.71,820.362,949.633,818.001,951.01,815.966z M967.998,821.55c0-1.531-0.446-2.736-1.338-3.613
					c-0.891-0.875-2.025-1.313-3.402-1.313c-1.595,0-3.051,0.57-4.364,1.713s-2.144,2.713-2.487,4.715
					c-0.094,0.564-0.141,1.082-0.141,1.549c0,1.535,0.445,2.744,1.338,3.637c0.892,0.893,2.01,1.338,3.355,1.338
					c1.595,0,3.05-0.578,4.363-1.736c1.314-1.156,2.158-2.736,2.535-4.738C967.951,822.536,967.998,822.021,967.998,821.55z"/>
				<path d="M981.748,815.966c1.469-2.033,3.291-3.598,5.467-4.693c2.174-1.094,4.544-1.643,7.109-1.643
					c3.285,0,5.881,0.861,7.79,2.582c1.908,1.721,2.926,4.146,3.051,7.273h-8.541c-0.346-2-1.565-3.004-3.661-3.004
					c-1.471,0-2.737,0.572-3.801,1.715c-1.064,1.143-1.783,2.775-2.159,4.904c-0.125,0.656-0.188,1.344-0.188,2.064
					c0,1.469,0.345,2.598,1.033,3.379c0.687,0.781,1.626,1.172,2.814,1.172c2.065,0,3.614-1,4.646-3.002h8.588
					c-1.22,3.066-3.098,5.475-5.631,7.227c-2.534,1.752-5.429,2.629-8.683,2.629c-3.378,0-6.062-0.932-8.049-2.795
					c-1.986-1.859-2.979-4.402-2.979-7.623c0-0.971,0.094-1.988,0.281-3.051C979.307,820.378,980.277,818.001,981.748,815.966z"/>
				<path d="M1017.835,810.007l-4.598,26.186h-8.024l4.598-26.186H1017.835z M1011.383,806.276
					c-0.736-0.674-1.103-1.525-1.103-2.559c0-1.408,0.547-2.611,1.642-3.611c1.096-1.004,2.425-1.504,3.989-1.504
					c1.251,0,2.236,0.338,2.956,1.01c0.721,0.672,1.08,1.541,1.08,2.604c0,1.377-0.548,2.566-1.643,3.566
					c-1.096,1.002-2.41,1.502-3.941,1.502C1013.111,807.284,1012.117,806.948,1011.383,806.276z"/>
				<path d="M1023.748,835.208c-1.753-0.906-3.106-2.191-4.06-3.848c-0.955-1.66-1.432-3.584-1.432-5.773
					c0-2.973,0.703-5.678,2.112-8.119c1.407-2.439,3.347-4.355,5.818-5.75c2.471-1.391,5.226-2.088,8.26-2.088
					c2.252,0,4.263,0.463,6.03,1.385c1.768,0.924,3.136,2.215,4.106,3.871c0.969,1.66,1.454,3.584,1.454,5.773
					c0,3.004-0.712,5.719-2.135,8.143c-1.425,2.424-3.378,4.326-5.866,5.701c-2.487,1.377-5.249,2.066-8.282,2.066
					C1027.502,836.569,1025.5,836.116,1023.748,835.208z M1034.425,828.472c1.048-0.797,1.86-1.83,2.439-3.096
					s0.868-2.59,0.868-3.965c0-1.564-0.423-2.77-1.267-3.615c-0.846-0.844-1.909-1.266-3.191-1.266
					c-1.346,0-2.527,0.396-3.544,1.197c-1.017,0.797-1.806,1.838-2.37,3.119c-0.563,1.283-0.845,2.627-0.845,4.035
					c0,1.533,0.407,2.715,1.222,3.545c0.812,0.828,1.859,1.242,3.144,1.242C1032.194,829.669,1033.376,829.271,1034.425,828.472z
					 M1041.111,803.108l-12.202,4.738l0.986-5.537l12.295-5.443L1041.111,803.108z"/>
				<path d="M1073.211,811.931c1.501,1.471,2.254,3.52,2.254,6.146c0,0.877-0.096,1.816-0.283,2.816l-2.721,15.299h-7.979
					l2.534-14.219c0.094-0.533,0.142-1.002,0.142-1.408c0-1.314-0.369-2.33-1.104-3.051c-0.736-0.719-1.761-1.08-3.073-1.08
					c-1.565,0-2.879,0.486-3.942,1.457c-1.063,0.969-1.753,2.33-2.065,4.082v-0.234l-2.534,14.453h-8.024l4.599-26.186h8.025
					l-0.61,3.52c1.032-1.158,2.292-2.08,3.776-2.77c1.486-0.688,3.091-1.033,4.812-1.033
					C1069.645,809.724,1071.709,810.46,1073.211,811.931z"/>
				<path d="M1114.367,828.448l6.569,7.744h-9.339l-2.533-2.957c-3.411,2.316-7.243,3.475-11.498,3.475
					c-3.442,0-6.155-0.76-8.143-2.277c-1.986-1.518-2.979-3.574-2.979-6.17c0-2.473,0.806-4.678,2.416-6.619
					c1.612-1.938,3.763-3.486,6.454-4.645c-0.971-1.502-1.456-2.973-1.456-4.412c0-1.908,0.501-3.605,1.503-5.092
					c1-1.486,2.394-2.635,4.176-3.449c1.783-0.813,3.801-1.219,6.055-1.219c2.814,0,4.98,0.641,6.499,1.924
					c1.517,1.283,2.276,2.908,2.276,4.879c0,0.408-0.047,0.879-0.141,1.408h-7.509c0.03-0.123,0.046-0.311,0.046-0.563
					c0-0.594-0.203-1.057-0.608-1.385c-0.408-0.328-0.924-0.492-1.55-0.492c-0.844,0-1.564,0.273-2.158,0.82
					c-0.595,0.549-0.893,1.244-0.893,2.09c0,1.094,0.626,2.424,1.878,3.988l6.616,7.836l0.846-1.313l2.252-2.957h8.072l-2.957,4.082
					C1116.885,825.304,1115.588,827.073,1114.367,828.448z M1104.981,828.495l-6.054-7.084c-1.347,0.625-2.395,1.398-3.146,2.322
					c-0.75,0.922-1.125,1.932-1.125,3.027c0,1.031,0.398,1.869,1.196,2.51c0.799,0.643,1.901,0.963,3.309,0.963
					C1101.257,830.233,1103.197,829.653,1104.981,828.495z"/>
				<path d="M1158.597,804.868c2.204,1.078,3.896,2.596,5.068,4.551c1.174,1.957,1.76,4.248,1.76,6.875
					c0,0.908-0.11,2.051-0.329,3.426c-0.563,3.225-1.776,6.086-3.636,8.59c-1.862,2.502-4.225,4.441-7.087,5.818
					c-2.863,1.377-6.016,2.064-9.456,2.064h-12.343l5.819-32.943h12.342C1153.77,803.249,1156.391,803.788,1158.597,804.868z
					 M1153.177,826.808c2.001-1.689,3.253-4.051,3.754-7.088c0.155-0.938,0.235-1.719,0.235-2.346c0-2.314-0.704-4.107-2.112-5.373
					c-1.408-1.268-3.411-1.9-6.007-1.9h-3.849l-3.378,19.242h3.801C1148.655,829.343,1151.174,828.495,1153.177,826.808z"/>
				<path d="M1178.047,810.007l-4.598,26.186h-8.024l4.599-26.186H1178.047z M1171.596,806.276
					c-0.736-0.674-1.103-1.525-1.103-2.559c0-1.408,0.546-2.611,1.642-3.611c1.095-1.004,2.425-1.504,3.988-1.504
					c1.251,0,2.236,0.338,2.957,1.01c0.72,0.672,1.08,1.541,1.08,2.604c0,1.377-0.549,2.566-1.643,3.566
					c-1.096,1.002-2.41,1.502-3.942,1.502C1173.323,807.284,1172.33,806.948,1171.596,806.276z"/>
				<path d="M1183.326,835.583c-1.642-0.658-2.932-1.572-3.87-2.746s-1.409-2.525-1.409-4.059c0-0.219,0.031-0.609,0.094-1.174
					h7.744c-0.063,0.971,0.227,1.744,0.869,2.322c0.641,0.58,1.555,0.869,2.744,0.869c1.002,0,1.83-0.188,2.487-0.563
					c0.657-0.377,0.986-0.908,0.986-1.596c0-0.656-0.352-1.182-1.057-1.572c-0.704-0.393-1.87-0.869-3.495-1.432
					c-1.689-0.563-3.105-1.119-4.247-1.666c-1.144-0.547-2.12-1.338-2.935-2.369c-0.814-1.033-1.219-2.332-1.219-3.896
					c0-1.531,0.452-2.916,1.36-4.152c0.907-1.234,2.183-2.197,3.825-2.887c1.643-0.688,3.543-1.033,5.701-1.033
					c2.159,0,4.036,0.354,5.632,1.057c1.596,0.705,2.831,1.682,3.708,2.934c0.876,1.25,1.313,2.66,1.313,4.223l-0.047,0.705h-7.274
					c0.063-0.939-0.219-1.689-0.844-2.254c-0.627-0.561-1.52-0.844-2.676-0.844c-0.908,0-1.65,0.188-2.229,0.563
					c-0.579,0.377-0.868,0.891-0.868,1.551c0,0.686,0.383,1.258,1.15,1.711c0.767,0.455,1.963,0.963,3.59,1.525
					c1.689,0.563,3.09,1.119,4.199,1.666c1.111,0.547,2.066,1.314,2.863,2.301c0.798,0.984,1.197,2.213,1.197,3.682
					c0,1.691-0.508,3.145-1.525,4.365s-2.409,2.152-4.178,2.793c-1.767,0.641-3.777,0.963-6.029,0.963
					C1186.824,836.569,1184.97,836.239,1183.326,835.583z"/>
				<path d="M1227.299,812.376c1.987,1.83,2.98,4.326,2.98,7.484c0,1.033-0.078,1.957-0.234,2.77
					c-0.125,0.721-0.313,1.486-0.563,2.301h-18.162c-0.031,0.188-0.046,0.484-0.046,0.891c0,1.377,0.375,2.426,1.125,3.145
					c0.751,0.721,1.753,1.078,3.005,1.078c2.001,0,3.533-0.844,4.598-2.533h8.541c-1.127,2.66-2.956,4.834-5.49,6.523
					c-2.533,1.688-5.383,2.535-8.541,2.535c-3.379,0-6.078-0.939-8.096-2.816c-2.018-1.879-3.026-4.428-3.026-7.65
					c0-0.969,0.094-1.969,0.281-3.002c0.469-2.723,1.438-5.1,2.909-7.135c1.471-2.033,3.301-3.598,5.491-4.693
					c2.19-1.094,4.583-1.643,7.181-1.643C1222.631,809.63,1225.313,810.546,1227.299,812.376z M1222.255,819.956
					c0-1.252-0.392-2.215-1.173-2.887c-0.783-0.672-1.814-1.01-3.098-1.01c-1.377,0-2.59,0.416-3.637,1.244
					c-1.049,0.828-1.808,2.012-2.276,3.543h10.09C1222.223,820.409,1222.255,820.112,1222.255,819.956z"/>
				<path d="M1257.357,811.931c1.501,1.471,2.252,3.52,2.252,6.146c0,0.877-0.094,1.816-0.281,2.816l-2.722,15.299h-7.978
					l2.534-14.219c0.095-0.533,0.141-1.002,0.141-1.408c0-1.314-0.369-2.33-1.103-3.051c-0.736-0.719-1.761-1.08-3.074-1.08
					c-1.566,0-2.879,0.486-3.943,1.457c-1.063,0.969-1.752,2.33-2.064,4.082v-0.234l-2.533,14.453h-8.025l4.6-26.186h8.023
					l-0.609,3.52c1.033-1.158,2.291-2.08,3.777-2.77c1.486-0.688,3.09-1.033,4.812-1.033
					C1253.79,809.724,1255.855,810.46,1257.357,811.931z M1247.973,800.62c0.686,0,1.281,0.104,1.781,0.305
					c0.501,0.205,1.063,0.51,1.691,0.916c0.469,0.313,0.875,0.539,1.219,0.68s0.705,0.211,1.08,0.211
					c1.188,0,1.985-0.703,2.393-2.111h4.13c-1.532,4.631-4.099,6.945-7.696,6.945c-0.688,0-1.283-0.102-1.783-0.305
					s-1.064-0.508-1.689-0.914c-0.469-0.313-0.876-0.541-1.22-0.682c-0.346-0.141-0.704-0.211-1.079-0.211
					c-1.127,0-1.94,0.705-2.441,2.111h-4.083C1241.807,802.937,1244.373,800.62,1247.973,800.62z"/>
				<path d="M1266.885,835.208c-1.753-0.906-3.106-2.191-4.061-3.848c-0.955-1.66-1.432-3.584-1.432-5.773
					c0-2.973,0.703-5.678,2.112-8.119c1.408-2.439,3.347-4.355,5.819-5.75c2.471-1.391,5.225-2.088,8.26-2.088
					c2.252,0,4.262,0.463,6.03,1.385c1.767,0.924,3.136,2.215,4.106,3.871c0.969,1.66,1.453,3.584,1.453,5.773
					c0,3.004-0.711,5.719-2.135,8.143s-3.377,4.326-5.865,5.701c-2.488,1.377-5.25,2.066-8.283,2.066
					C1270.639,836.569,1268.636,836.116,1266.885,835.208z M1277.561,828.472c1.048-0.797,1.86-1.83,2.439-3.096
					c0.58-1.266,0.868-2.59,0.868-3.965c0-1.564-0.422-2.77-1.267-3.615c-0.846-0.844-1.908-1.266-3.191-1.266
					c-1.346,0-2.527,0.396-3.543,1.197c-1.018,0.797-1.807,1.838-2.371,3.119c-0.563,1.283-0.844,2.627-0.844,4.035
					c0,1.533,0.406,2.715,1.221,3.545c0.813,0.828,1.86,1.242,3.145,1.242C1275.331,829.669,1276.512,829.271,1277.561,828.472z"/>
			</g>
		</g>
		<polygon fill="#FFFFFF" points="388.193,236.509 359.193,219.009 518.031,204.899 585.36,112.677 585.36,148.011 529.355,225.12 
					"/>
		
			<rect x="785.026" y="807.009" transform="matrix(0.7071 0.7071 -0.7071 0.7071 814.0703 -324.3219)" fill="#D10A00" width="27" height="27"/>
	</g>
</g>
<g id="Capa_4">
</g>
</svg>
