<?xml version="1.0" encoding="utf-8"?>
<!-- Generator: Adobe Illustrator 16.0.0, SVG Export Plug-In . SVG Version: 6.00 Build 0)  -->
<!DOCTYPE svg PUBLIC "-//W3C//DTD SVG 1.1//EN" "http://www.w3.org/Graphics/SVG/1.1/DTD/svg11.dtd">
<svg version="1.1" xmlns="http://www.w3.org/2000/svg" xmlns:xlink="http://www.w3.org/1999/xlink" x="0px" y="0px" width="1100px"
	 height="2000px" viewBox="0 0 1100 2000" enable-background="new 0 0 1100 2000" xml:space="preserve">
<g id="Capa_8" display="none">
	
		<image display="inline" overflow="visible" width="4096" height="3072" xlink:href="../../../../Downloads/IMG_20210430_115534594.jpg"  transform="matrix(0.7959 0 0 0.7959 559.7207 232.0288)">
	</image>
</g>
<g id="Capa_7">
	<g>
		<polygon opacity="0.4" fill="#49060E" points="780.08,1933.046 33.081,1806.9 256.606,1930.046 		"/>
		<g>
			<path fill="#FFC198" d="M571.946,983.417c0,0-17.823,7.541-8.226,20.908c0,0,18.166,4.113,21.594,6.17
				c0,0-16.11,29.82-64.097,21.937c0,0-33.591-6.512-37.019-26.392c0,0,20.224-1.371,14.396-35.306
				C498.596,970.734,554.466,970.734,571.946,983.417z"/>
			<path fill="#FFB092" d="M284.027,831.345c0,0-21.937,43.874-112.427,33.819c0,0-120.648-29.25-109.681-152.645
				c0,0,10.969-88.661,109.685-63.982c0,0,39.757-12.339,89.115,79.521C260.72,728.059,292.253,803.01,284.027,831.345z"/>
			<path fill="#FFB092" d="M852.557,922.748c0,0,12.794,21.938,57.581,10.054c7.434-1.972,13.579-4.142,20.461-8.345
				c17.575-10.732,28.364-25.84,33.38-45.875c8.245-32.935,16.987-92.458-17.039-115.768c-9.973-6.831-22.291-7.823-34.057-6.877
				c-0.006,0-51.187,4.115-61.242,46.159C851.641,802.096,826.962,886.187,852.557,922.748z"/>
			<path fill="#49060E" d="M852.56,494.98l19.646,270.097c0,0,16.453,1.824,43.188-56.898c40.445-52.785,31.534-78.15,31.534-78.15
				c1.111,0.22,2.18,0.398,3.208,0.548c18.152,2.578,24.898-5.799,24.898-5.799c26.502-24.679-2.742-49.358-2.742-49.358
				c33.823-15.547,52.1-47.534,52.1-47.534c28.34-53.005,4.565-103.281,4.565-103.281
				c-22.622-47.301-82.482-103.514-102.362-120.199l-3.564,9.172L852.56,494.98z"/>
			<path fill="#EDA57C" d="M501.321,1019.874c0,0,40.789-18.51,47.987-37.704l-51.072-17.823c0,0,8.912,37.018-13.367,42.16
				C484.869,1006.507,494.124,1019.188,501.321,1019.874z"/>
			<path fill="#FFC198" d="M546.156,982.306c-34.3-5.276-68.552-11.964-101.296-23.705c-27.239-9.769-52.724-21.912-76.934-37.811
				c-27.422-18.006-50.67-39.164-70.428-65.404c-23.053-30.624-36.766-63.394-45.895-100.47c-1.176-4.779-2.199-9.608-3.46-14.364
				c0,0-98.71-372.222,141.897-435.972c0,0,440.082,0.001,485.327,141.897c0,0,53.465,160.405,24.676,226.211
				c0,0-32.827,94.384-28.803,131.488c6.459,59.563,0.819,120.583-52.576,158.072c-37.758,26.507-94.522,32.047-139.293,33.571
				c-44.728,1.522-88.912-6.71-132.925-13.469C546.352,982.335,546.253,982.32,546.156,982.306z"/>
			<path fill="#FFFFFF" d="M369.032,784.272c0,0,59.641,52.785,135.733,2.742c0,0,45.93-32.905,59.641-104.885
				c0,0-19.675-9.638-49.508-20.319c-39.103-13.971-95.644-29.697-148.06-27.681c-13.613,0.521-26.941,2.248-39.623,5.498
				C327.216,639.626,306.649,746.568,369.032,784.272z"/>
			<path fill="#FFFFFF" d="M672.719,820.604c0,0,32.22,67.182,103.515,61.012c0,0,85.005,6.855,82.948-121.338
				c0,0-15.861-9.419-41.897-20.045c-30.083-12.257-73.764-26.132-122.257-28.915c-8.226-0.48-16.592-0.63-25.051-0.397
				C669.977,710.921,642.556,765.077,672.719,820.604z"/>
			<path fill="#AF563D" d="M524.474,830.663c0,0,22.979,37.774,40.559,38.094c0,0,41.764,4.915,33.079-3.768
				c0,0-31.076-2.514-40.164-10.333c0,0-5.109-2.564-13.74-11.514C544.207,843.142,528.19,824.885,524.474,830.663z"/>
			<path fill="#00A5A4" d="M348.919,686.242c0,46.821,37.967,84.772,84.785,84.772c46.821,0,84.771-37.951,84.771-84.772
				c0-8.501-1.248-16.7-3.577-24.432c-39.103-13.971-95.644-29.697-148.06-27.681C355.61,648.497,348.919,666.582,348.919,686.242z"
				/>
			<path fill="#00C6B5" d="M680.712,761.883c0,44.422,28.34,79.973,69.704,80.426c38.485,0.425,70.608-26.502,69.69-80.426
				c-0.123-7.5-1.108-14.767-2.822-21.649c-30.083-12.257-73.764-26.132-122.257-28.915
				C686.046,724.631,680.712,741.852,680.712,761.883z"/>
			<path fill="#49060E" d="M561.437,667.733c0,0,13.71,8.683,10.055,15.082c0,0-5.026,4.57-19.652-1.371
				c0,0-89.573-43.417-193.317-42.502c0,0-39.761,6.398-39.761-5.032c0-9.136,42.346-9.101,50.006-8.973
				c50.641,0.844,102.413,9.599,150.553,25.351C533.341,654.875,548.886,659.783,561.437,667.733z"/>
			<path fill="#FFFFFF" d="M515.048,713.663c0,0-33.933-15.767-32.905-19.88c0,0-0.686-8.912,42.503-7.198
				C524.646,686.585,518.818,709.893,515.048,713.663z"/>
			<path fill="#49060E" d="M860.555,751.202c2.85,2.739,4.9,6.352,2.857,10.101c-0.715,1.315-2.129,2.654-3.419,3.406
				c-11.317,6.599-49.926-15.688-56.66-18.233c-15.449-5.837-31.018-11.372-46.79-16.271c-8.946-2.778-17.955-5.354-27.033-7.665
				c-15.424-3.925-31.879-7.616-47.879-7.848c0,0-23.648-0.344-14.396-9.94c0,0,21.594-10.283,87.747,6.17
				c25.924,6.447,50.172,15.999,75.408,24.679c4.396,1.513,8.657,3.471,12.84,5.492c4.276,2.068,8.526,4.223,12.634,6.613
				C857.325,748.556,859.05,749.757,860.555,751.202z"/>
			<path fill="#FFFFFF" d="M820.106,789.413c0,0-27.078-9.597-30.163-12.339c0,0-4.113-5.827,5.827-8.227c0,0,25.021-3.771,31.534,0
				C827.305,768.848,827.99,787.357,820.106,789.413z"/>
			<path fill="#49060E" d="M420.789,518.974c0,0-9.94-2.742,0.686-11.997c0,0,58.955-33.591,88.433-16.453
				c0,0,56.556,37.818,54.729,55.185c0,0,0.914,10.055-7.313,7.313c0,0-56.213-26.507-95.516-30.62
				C461.808,522.402,424.56,518.289,420.789,518.974z"/>
			<path fill="#49060E" d="M741.501,601.465c0,0-13.71,1.371-5.028-9.597c0,0,22.85-20.108,56.671-8.683
				c0,0,57.584,32.449,53.471,57.584c0,0,0.913,7.312-11.882,0.914c0,0-39.76-23.765-60.326-31.077
				C774.406,610.606,755.212,602.836,741.501,601.465z"/>
			<path fill="#E34544" d="M109.219,734.914c0,0,49.357-6.855,96.659,15.082c0,0,36.332,18.509,33.59,22.623
				c0,0-32.219-2.057-75.407-19.88C164.061,752.738,114.702,736.971,109.219,734.914z"/>
			<path fill="#E34544" d="M883.175,864.479c0,0,12.339-17.138,47.986-19.195C931.161,845.284,903.055,824.032,883.175,864.479z"/>
			<path fill="#EDA57C" d="M274.521,545.148c0,0,24.679-56.213,30.163-58.955c0,0,39.761,0,61.696-16.453
				c0,0-26.049-19.194-13.71-24.679c0,0,136.313-41.131,377.617-38.389L559.698,306.586l-265.404,24.679
				C294.294,331.265,253.954,427.238,274.521,545.148z"/>
			<path fill="#49060E" d="M249.751,749.082c0,0-26.735-36.104-33.591-67.639c0,0-6.854-24.679-61.012-35.647
				c0,0-21.251-196.745-26.05-225.537c0,0-5.484-63.754,28.106-65.811l115.168,62.383c0,0-6.169,88.433,2.057,128.193
				c0,0-28.792,30.163-35.647,45.93C238.782,590.954,235.585,707.95,249.751,749.082z"/>
			<path fill="#BA2B54" d="M283.114,401.292c0.675,0.318-4.478,9.742-4.81,10.28c-4.138,6.717-10.612,12.2-17.96,15.154
				c-13.162,5.292-27.188-5.684-33.305-16.762c-0.529-0.959-4.6-11.666-3.794-11.87c-0.009,0.002-79.065,20.105-109.229-36.562
				c0,0-1.826-18.738,16.911-8.226l120.194,32.905C251.122,386.211,283.079,401.276,283.114,401.292z"/>
			<path fill="#A50E35" d="M105.421,304.666c1.332,10.818,9.707,18.18,19.375,22.074c3.508,1.412,7.184,2.372,10.925,2.893
				c0.852,0.124,3.99,0.918,4.799,0.37c-18.276,12.339-25.584,24.213-25.584,24.213c26.05,40.226,111.508,33.371,111.508,33.371
				c-0.919,15.534,16,24.213,16,24.213c24.679,7.321,50.729-15.082,50.729-15.082c5.937,37.937,42.503,45.245,42.503,45.245
				c14.162,3.208,10.05-5.937,10.05-5.937c-10.517-5.031-10.517-30.615-10.517-30.615c-0.452-8.692,32.453-40.679,32.453-40.679
				c5.484-5.484,14.396-7.541,14.396-7.541c8.911,0.686,71.979,1.371,71.979,1.371c23.993-0.686,42.502-27.421,42.502-27.421
				c4.113-5.484,56.898,8.912,56.898,8.912c128.193,33.591,181.664,68.552,181.664,68.552c15.081,8.227,78.835,4.113,78.835,4.113
				c32.549,1.221,48.097,12.875,55.364,22.156c4.991,6.361,6.073,11.599,6.073,11.599c63.48-39.583,53.964-139.779,53.964-139.779
				C880.885,102.861,662.889,73.15,662.889,73.15c-3.112-0.59-6.073-0.918-8.855-1.028c-27.408-1.056-38.898,19.085-38.898,19.085
				c-37.019-17.138-124.08-10.968-124.08-10.968c-196.745,17.138-277.87,121.79-277.87,121.79
				c-15.438,4.387-30.216,10.255-44.186,18.152c-5.158,2.907-10.203,6.033-15.098,9.365c-5.938,4.044-11.682,8.583-17.056,13.354
				C119.407,258.42,102.337,279.726,105.421,304.666z"/>
			<path fill="#59111D" d="M948.3,626.602l1.837,3.976c18.152,2.578,24.898-5.799,24.898-5.799
				c26.502-24.679-2.742-49.358-2.742-49.358c33.823-15.547,52.1-47.534,52.1-47.534c28.34-53.005,4.565-103.281,4.565-103.281
				c-22.622-47.301-82.482-103.514-102.362-120.199l-3.564,9.172c23.624,24.063,79.425,92.738,79.425,92.738
				c26.502,75.874-39.761,171.614-39.761,171.614C990.802,611.52,948.3,626.602,948.3,626.602z"/>
			<path fill="#BA2B54" d="M654.033,72.122c14.712,13.71,53.194,25.255,53.194,25.255
				c216.626,101.458,199.255,221.191,199.255,221.191c1.44,70.267-25.801,104.94-37.182,116.306
				c4.991,6.361,6.073,11.599,6.073,11.599c63.48-39.583,53.964-139.779,53.964-139.779
				C880.885,102.861,662.889,73.15,662.889,73.15C659.776,72.561,656.815,72.232,654.033,72.122z"/>
			<path fill="#FF3046" d="M253.864,1914.929c0,0,6.4-25.137,29.25-46.615c0,0,15.997-16.911,17.823-48.9l158.583,8.227
				l-0.455,87.747L253.864,1914.929z"/>
			<path fill="#FF3046" d="M570.235,1813.984c0,0,4.453,49.758,5.369,69.41c0,0,0,32.447,0.913,36.561l201.544-0.455
				c0,0,1.371-11.884-20.565-29.25c0,0-29.25-21.479-30.621-69.466C726.875,1820.784,594.456,1796.618,570.235,1813.984z"/>
			<path fill="#9B9B9B" d="M726.305,1796.159c0,0,0.555,29.206,2.611,43.944l-155.938,3.813l-3.2-36.561L726.305,1796.159z"/>
			<path fill="#9B9B9B" d="M303.337,1795.245c0,0-1.617,28.063-6.072,45.544l162.141,3.128l3.2-36.561L303.337,1795.245z"/>
			<path fill="#1E3470" d="M749.275,1818.044c-42.05,13.71-189.328,9.939-189.328,9.939c-2.399-2.057-7.884-51.414-7.884-51.414
				l4.113-0.918l2.057-0.453c-4.565-11.887-12.792-158.698-12.792-158.698c-0.918-20.113-15.534-149.897-15.534-149.897
				l-23.773,2.742c-5.484,34.729-28.106,291.801-28.106,291.801l7.541,0.686l-3.428,70.608l-184.406-8.911
				c-14.396-5.484-2.742-66.496-2.742-66.496l16.452-4.113c5.896-20.827,8.912-41.393,11.051-62.918
				c4.498-45.039,13.985-90.215,23.227-134.513c0-71.98,25.598-168.872,25.598-168.872l285.63,6.402
				c0.686,10.969,30.849,128.193,30.849,128.193c13.024,56.213,26.735,151.048,26.735,151.048
				c10.968,50.729,12.339,85.91,12.339,85.91h14.177C740.583,1765.025,749.275,1818.044,749.275,1818.044z"/>
			<path d="M313.391,1212.551c0,0,36.105-128.651,42.961-136.192c0,0,12.796-13.71,18.28-16.452c0,0,102.369-51.124,109.225-55.237
				c0,0,16.453,25.021,50.729,24.679c0,0,38.731-0.686,46.958-20.909c0,0,82.378,10.336,89.233,13.764c0,0,4.839,1.273,7.541,6.17
				c13.702,24.815,62.846,102.501,71.147,102.214c0,0-70.462,29.407-101.996,56.828c0,0-4.229,48.846,16.795,125.625
				c0,0,19.195,76.778,14.624,84.092c0,0-1.826,7.311-27.421,4.568c0,0-273.293-11.882-281.52-10.053
				c0,0,9.139-46.616,19.194-102.371c0,0,14.281-64.158,14.281-88.837C403.424,1200.438,319.791,1212.093,313.391,1212.551z"/>
			<g>
				<path fill-rule="evenodd" clip-rule="evenodd" fill="#FFFFFF" d="M594.772,1175.215c4.47-13.283,8.941-26.562,13.413-39.842
					c-0.099-0.081-0.198-0.161-0.297-0.241c-3.171,2.679-6.344,5.358-9.707,8.199c-1.307-3.501-2.531-6.781-3.781-10.127
					c-1.835,1.752-56.244,77.144-56.792,78.816c8.079-3.208,15.797-6.714,23.986-9.975c-1.08,1.568-96.928,75.927-98.481,76.559
					c-0.034-0.048-0.085-0.098-0.095-0.155c-0.017-0.062-0.009-0.134,0.01-0.194c0.017-0.062,0.051-0.122,0.08-0.18
					c0.035-0.056,0.07-0.109,0.107-0.163s0.079-0.106,0.118-0.156c0.083-0.104,0.167-0.202,0.252-0.306
					c0.04-0.05,0.083-0.103,0.126-0.152c0.289-0.357,0.574-0.715,0.867-1.074c44.133-54.103,88.262-108.207,132.395-162.311
					c0.083-0.103,0.169-0.201,0.252-0.309c0.04-0.049,0.08-0.103,0.117-0.155c0.038-0.054,0.072-0.111,0.107-0.163
					c0.029-0.059,0.067-0.115,0.083-0.177c0.017-0.061,0.017-0.129,0.043-0.465c-5.72,1.616-11.354,3.208-16.991,4.798
					c-0.066-0.118-0.137-0.236-0.203-0.355c18.279-11.94,35.725-25.018,53.031-38.425c-0.251,0.408-0.471,0.838-0.755,1.228
					c-8.298,11.441-16.604,22.879-24.906,34.317c-0.423,0.587-0.865,1.162-1.242,1.775c-0.879,1.44-1.039,2.946-0.324,4.519
					c0.378,0.832,0.707,1.688,1.178,2.831c8.296-7.731,16.479-15.354,24.663-22.979c0.107,0.054,0.214,0.105,0.321,0.159
					c-0.149,1.273-0.273,2.547-0.455,3.814c-2.316,15.999-4.648,31.993-6.949,47.996c-0.228,1.592-0.849,2.824-2.195,3.771
					c-8.808,6.215-17.591,12.467-26.388,18.701c-0.367,0.254-0.776,0.449-1.168,0.669
					C595.054,1175.382,594.912,1175.299,594.772,1175.215z"/>
			</g>
			<path fill="#DFA794" d="M790.969,1254.475c-46.835,49.233-174.644,70.279-297.915,65.316c-0.631-0.014-1.248-0.042-1.879-0.068
				c-6.1-0.261-13.367-0.576-20.634-1.7c-0.521-0.082-1.055-0.165-1.575-0.247l-0.07-0.015
				c-16.301-2.755-32.164-9.721-34.453-28.955c-3.908-32.905,95.575-39.802,141.862-45.218c8.774-1.015,15.643-1.988,19.522-3.071
				c10.283-2.865,21.91-6.101,31.466-11.64c9.789-5.648,17.427-13.71,19.318-26.214c0.123-0.824,0.521-17.29,0.521-17.303
				c-0.343-3.086,14.644-9.598,32.782-20.333c28.572-16.919,57.021-29.368,57.021-29.368c0.426,0,47.042,58.38,57.872,87.912
				c0.467,1.261,0.865,2.468,1.193,3.605C798.03,1234.333,799.689,1245.315,790.969,1254.475z"/>
			<path fill="#F6837A" d="M630.2,1223.817c0,0-0.645,1.988-2.907,5.06c-3.935,5.36-12.86,14.012-32.055,20.99
				c0,0-68.019,54.293-102.185,69.924c-0.631-0.014-1.248-0.042-1.879-0.068c-6.1-0.261-13.367-0.576-20.634-1.7
				c-0.521-0.082-1.055-0.165-1.575-0.247l-0.07-0.015l-10.076-2.769l117.485-71.404l41.556-25.255l9.598,5.484H630.2z"/>
			<path fill="#DFA794" d="M647.297,1200.948c0.123,6.32-4.456,21.595-25.707,30.85c-11.366,4.948-19.522,5.717-30.671,13.202
				c-15.383,10.31-86.033,58.503-118.033,74.037c-34.619,16.809-102.842,39.527-141.438,35.647
				c-14.738-1.481-18.057-7.774-18.057-7.774c-29.711-26.502,3.268-134.747,3.268-134.747s10.704-1.672,39.77-5.635
				c5.581-0.768,11.477-1.536,17.139-2.248c15.548-2.002,29.326-3.674,29.902-4.017c0.082,0.944,1.729,16.945,1.865,17.754
				c2.646,16.344,12.147,14.644,32.37,10.53c49.521-10.078,100.195-23.761,108.765-26.502c2.633-0.851,27.792-12.984,33.824-14.973
				c25.488-8.404,54.822-10.44,65.217-5.986C650.31,1183.144,647.187,1195.203,647.297,1200.948z"/>
			<path fill="#D68E7B" d="M403.521,1200.282l3.656,30.847c0,0-23.766,6.399-58.727,37.933c0,0-47.641,54.67-47.302,39.075
				c0.515-23.65,2.319-44.828,9.598-73.351c0.139-0.544,5.415-22.52,5.97-22.595
				C317.601,1211.793,399.813,1200.492,403.521,1200.282z"/>
			<path fill="#DFA794" d="M421.181,1231.919l-36.993,3.78c-11.139,2.64-18.319,6.977-29.434,9.72
				c-7.708,1.904-13.65-8.412-11.341-15.659c1.34-4.204,29.965-12.352,35.104-14.04l37.805-0.542l-27-12.96
				c-11.01,0.306-37.787,2.691-50.432,3.176c-5.27,0.204-7.045-5.063-7.045-5.063c-5.4-17.82,5.502-21.354,5.502-21.354
				c6.482-6.482,60.883-0.255,60.883-0.255l33.754,17.554c-2.721-3.463-17.805-14.865-21.6-18.363
				c-7.698-7.089-42.668-13.501-42.668-13.501c-18.631-3.241-21.333-7.966-21.333-7.966c-3.239-11.342,7.292-21.198,7.292-21.198
				c13.972-3.847,53.435,7.127,67.777,15.393c13.434,7.741,26.731,27.812,26.731,27.812l-5.535-24.842
				c-0.809-2.026-1.739-2.857-2.294-3.24c-6.481-4.456-20.302-9.415-28.425-14.283c-6.569-3.939-14.868-6.655-20.427-11.968
				c-6.438-6.153,1.608-19.115,3.754-21.813c11.198-14.083,72.897,32.995,73.182,33.213c5.957,4.553,7.217,11.842,9.463,18.302
				c2.389,6.875,4.651,13.806,7.077,20.667c5.048,14.255,8.992,26.389,13.903,40.688
				C498.882,1215.176,441.366,1229.96,421.181,1231.919z"/>
			<circle fill="#CCCCCC" cx="602.225" cy="1897.617" r="10.968"/>
			<circle fill="#CCCCCC" cx="437.113" cy="1893.96" r="10.968"/>
			<path fill="#142A5B" d="M659,1399.564l-129.015,67.614c-4.276,0.771-8.489,1.762-12.855,1.878
				c-0.9,0.024-11.01,0.179-11.01,0.179l-2.078,16.517c0,0-142.06,88.555-163.361,93.396c0,0,3.998-17.823,5.027-22.851
				c0.484-2.374-1.715-63.068,24.762-165.446C370.47,1390.851,644.478,1404.406,659,1399.564z"/>
			<g>
				<path fill="#1E3470" d="M561.483,1449.259c0,0.015-11.806,14.506-29.711,17.92h-1.782c-27.229,7.143-44.669-7.938-44.669-7.938
					c-7.308-5.224-2.166-7.65-2.166-7.65c6.047,7.171,19.373,11.695,31.026,13.189c8.075,1.042,18.51-1.193,18.51-1.193
					l-0.027,0.056c6.335-3.099,12.531-6.5,18.413-10.338c1.329-0.877,2.619-1.796,3.852-2.797c1.578-1.288,2.813-3.277,4.772-4.018
					C562.169,1445.571,563.073,1447.312,561.483,1449.259z"/>
			</g>
			<path fill="#12295B" d="M749.275,1818.044c-42.05,13.71-189.328,9.939-189.328,9.939c-2.399-2.057-7.884-51.414-7.884-51.414
				l4.113-0.918c39.646-1.99,79.24-5.943,118.746-9.728c18.086-1.732,36.023-4.697,53.925-7.754h12.201
				C740.583,1765.025,749.275,1818.044,749.275,1818.044z"/>
			<rect x="576.044" y="1918.938" fill="#D61834" width="201.544" height="15.082"/>
			<rect x="253.848" y="1914.826" fill="#D61834" width="205.2" height="15.081"/>
			<path fill="#12295B" d="M485.568,1761.831l-3.428,70.608l-184.406-8.911c-14.396-5.484-2.742-66.496-2.742-66.496l16.452-4.113
				c25.379,8.556,166.583,8.227,166.583,8.227L485.568,1761.831z"/>
			<path fill="#700725" d="M497.894,329.894c0,0-15.883-70.374-6.742-66.718c16.401,11.53,32.585,23.52,48.014,36.326
				c11.313,9.39,21.754,18.104,33.968,26.274c12.097,8.092,24.148,16.296,35.986,24.768c2.949,2.11,7.943,8.149,11.397,9.084
				c-22.365-7.198-44.825-12.058-65.951-18.995c-11.195-3.674-23.934-6.012-35.42-8.683
				C509.319,329.666,497.871,329.796,497.894,329.894z"/>
			<g>
				<path fill="#700725" d="M646.767,368.969c0,0-34.229-63.389-64.393-77.785c0,0-11.654-7.541-6.855-9.598
					c0,0,60.509,34.597,84.845,92.181L646.767,368.969z"/>
				<path fill="#700725" d="M693.887,387.157c0,0-13.255-14.167-7.313-15.995c0,0,15.081,13.252,20.107,21.022L693.887,387.157z"/>
				<path fill="#700725" d="M733.757,407.744c0,0-15.648-24.014-8.451-25.385c0,0,12.137,19.687,15.221,28.256l-4.155-1.371
					L733.757,407.744z"/>
				<path fill="#700725" d="M744.34,411.429c0,0,20.611-19.245,26.324-17.416c0,0,6.052,1.092-21.14,18.23L744.34,411.429z"/>
				<path fill="#700725" d="M752.866,412.628c0,0,24.197-14.731,29.223-14.274c0,0,3.2,0.686-0.686,3.199
					c0,0-18.939,8.933-22.367,11.675L752.866,412.628z"/>
			</g>
			<path fill="#EDA57C" d="M759.993,413.528c0,0,114.254,59.412,123.851,62.154c0,0-3.198-50.271-40.673-58.041
				C843.171,417.641,811.637,407.586,759.993,413.528z"/>
			<path fill="#D68E7B" d="M774.846,1187.827c0,0-83.634-4.799-126.993,7.027l-0.172-11.141c0,0,60.669-36.332,89.255-48.055
				C736.936,1135.659,767.99,1175.659,774.846,1187.827z"/>
			<path fill="#FFFFFF" d="M184.014,652.477c2.742,11.654,18.509-2.742,18.509-2.742c17.824-9.598,69.924-51.415,69.924-51.415
				c-5.484,17.138-4.113,89.804-4.113,89.804c0.686,77.464,22.623,96.659,22.623,96.659c44.559,52.1,198.802,58.955,198.802,58.955
				c39.76-1.371,65.81-23.308,65.81-23.308c36.333-39.075,44.56-135.734,44.56-135.734c26.735-1.371,47.301,17.824,47.301,17.824
				c-5.484,18.509-17.823,106.256-17.823,106.256c3.428,69.238,103.514,93.917,103.514,93.917
				c88.433,24.678,131.621,0.686,131.621,0.686c48.672-26.05,61.697-178.236,61.697-178.236
				c-0.686-14.396-46.616-31.534-46.616-31.534C759.169,642.88,682.39,644.937,682.39,644.937
				c-23.308,7.541-27.421,37.704-27.421,37.704c-13.71-14.396-50.729-13.71-50.729-13.71c2.057-3.428,2.057-16.453,2.057-16.453
				c1.371-9.597-78.603-54.609-78.603-54.609c-75.874-33.824-216.859-39.308-216.859-39.308c-9.597-1.371-18.509,2.742-18.509,2.742
				l-92.546,71.294C182.643,644.251,184.014,652.477,184.014,652.477z M692.22,662.308c0,0,59.408,3.194,192.853,59.86
				c0,0,19.66,9.145,20.565,24.679c0,0-3.647,52.565-18.729,91.86c0,0-15.082,56.213-37.938,57.131c0,0-65.81,15.082-137.104-16.453
				c0,0-37.704-12.792-62.04-51.414c0,0-8.227-6.855-5.142-29.478C644.686,798.494,654.735,664.131,692.22,662.308z
				 M289.132,620.258c0,0-2.289-17.824,18.276-32.905c0,0,10.968-12.339,22.854-10.969c0,0,93.685,10.969,158.576,34.729
				c0,0,95.521,26.968,96.439,42.968c0,0,1.823,46.15-10.969,85.005c0,0-19.66,77.231-56.679,84.539
				c0,0-77.231,15.547-177.317-24.679c0,0-47.534-11.421-50.729-81.344C289.585,717.602,284.553,658.194,289.132,620.258z"/>
			<path fill="#FF6462" d="M590.229,759.593c0.013-0.002,43.876-9.596,56.671-5.026c0,0,7.311,13.252-24.222,50.269
				c-9.075,10.654-20.587,1.395-25.961-7.402c-3.302-5.403-5.517-11.542-6.673-17.757
				C589.674,777.692,587.797,760.125,590.229,759.593z"/>
			<path fill="#C6806D" d="M647.424,1192.427c2.737-0.908,5.673-1.734,8.486-2.36c5.428-1.209,10.796-1.913,16.369-1.846
				c1.429,0.018,2.887,0.108,4.247,0.587c0.98,0.344,2.757,0.885,3.222,1.902c0.618,1.353-0.909,2.03-2.018,2.03
				c-0.007,0-26.708-0.141-30.364,4.886L647.424,1192.427z"/>
			<path fill="#C6806D" d="M396.321,1234.501c-1.742,0.558-3.274,1.542-4.969,2.228c-2.2,0.894-3.719,1.718-5.798,2.864
				c-2.048,1.127-4.163,2.426-5.851,4.054c-1.127,1.088-2.421,1.875-2.87,3.508c-0.456,1.661,1.034,1.857,2.255,1.339
				c0.646-0.274,1.139-0.708,1.697-1.115c3.015-2.188,6.029-4.194,9.254-6.066c3.27-1.898,6.525-3.822,9.799-5.715
				c1.119-0.645,2.236-1.297,3.367-1.925C403.206,1233.672,397.019,1234.278,396.321,1234.501z"/>
		</g>
	</g>
</g>
</svg>
